<?xml version="1.0" encoding="UTF-8" standalone="no"?>
<svg
   xmlns:dc="http://purl.org/dc/elements/1.1/"
   xmlns:cc="http://creativecommons.org/ns#"
   xmlns:rdf="http://www.w3.org/1999/02/22-rdf-syntax-ns#"
   xmlns:svg="http://www.w3.org/2000/svg"
   xmlns="http://www.w3.org/2000/svg"
   xmlns:sodipodi="http://sodipodi.sourceforge.net/DTD/sodipodi-0.dtd"
   xmlns:inkscape="http://www.inkscape.org/namespaces/inkscape"
   version="1.1"
   x="0px"
   y="0px"
   viewBox="0 0 246.91532 59.580528"
   enable-background="new 0 0 100 100"
   xml:space="preserve"
   id="svg12"
   sodipodi:docname="pheme.svg"
   width="246.91533"
   height="59.580528"
   inkscape:version="1.0 (9f2f71dc58, 2020-08-02)"><metadata
     id="metadata18"><rdf:RDF><cc:Work
         rdf:about=""><dc:format>image/svg+xml</dc:format><dc:type
           rdf:resource="http://purl.org/dc/dcmitype/StillImage" /><dc:title></dc:title></cc:Work></rdf:RDF></metadata><defs
     id="defs16" /><sodipodi:namedview
     pagecolor="#ffffff"
     bordercolor="#666666"
     borderopacity="1"
     objecttolerance="10"
     gridtolerance="10"
     guidetolerance="10"
     inkscape:pageopacity="0"
     inkscape:pageshadow="2"
     inkscape:window-width="1916"
     inkscape:window-height="1024"
     id="namedview14"
     showgrid="false"
     fit-margin-top="0"
     fit-margin-left="0"
     fit-margin-right="0"
     fit-margin-bottom="0"
     inkscape:zoom="3.588"
     inkscape:cx="124.62379"
     inkscape:cy="47.689318"
     inkscape:window-x="0"
     inkscape:window-y="26"
     inkscape:window-maximized="0"
     inkscape:current-layer="svg12" /><g
     id="g116"
     transform="scale(1.5625)"><g
       id="g6"
       transform="translate(30.28734,-62.234995)"><path
         d="m 125.78727,73.657573 c -2.456,0.436 -4.895,0.615 -7.367,0.762 0.673,-0.289 1.336,-0.584 1.982,-0.904 4.138,-2.03 8.334,-6.105 7.125,-11.137 -0.053,-0.221 -0.4,-0.174 -0.389,0.053 0,0.053 0,0.11 0,0.163 -0.053,-0.21 -0.268,-0.379 -0.5,-0.226 -4.727,3.144 -9.733,5.773 -15.08,7.708 -5.137,1.856 -10.348,2.766 -15.69,3.739 -0.184,0.032 -0.226,0.221 -0.168,0.368 -0.179,0.079 -0.3,0.273 -0.173,0.489 2.429,4.154 2.987,9.212 0.941,13.655 -1.872,4.075 -5.416,6.541 -9.48,8.124 -0.105,0.042 -0.137,0.131 -0.116,0.216 -0.016,-0.005 -0.026,-0.005 -0.042,-0.01 -0.436,-0.137 -0.62,0.542 -0.189,0.678 0.699,0.221 1.383,0.342 2.056,0.389 0.021,0.074 0.074,0.142 0.174,0.189 3.912,1.882 8.155,2.654997 12.483,2.407997 0.358,-0.021 0.5,-0.409997 0.279,-0.672997 -0.72,-0.852 -1.215,-1.714 -1.625,-2.687 2.687,1.867 6.268,1.972 9.139,0.31 0.252,-0.147 0.273,-0.557 0,-0.694 -1.867,-0.941 -3.26,-2.282 -4.59,-3.833 4.254,1.414 8.713,0.852 12.499,-1.593 0.331,-0.216 0.2,-0.731 -0.205,-0.747 -2.808,-0.1 -5.358,-0.957 -7.587,-2.561 4.727,0.599 11.799,0.079 12.94,-5.258 0.047,-0.237 -0.105,-0.457 -0.358,-0.463 -2.566,-0.068 -5.127,-0.242 -7.677,-0.526 5.137,-0.463 10.453,-2.014 12.015,-7.54 0.071,-0.257 -0.165,-0.441 -0.397,-0.399 z"
         id="path2" /><path
         d="m 10.62085,96.656832 c -0.011,0.005 -0.026,0.005 -0.042,0.01 0.021,-0.084 -0.01,-0.174 -0.116,-0.216 -4.0649998,-1.583 -7.6089998,-4.049 -9.47999982,-8.124 -2.04499998,-4.443 -1.488,-9.501 0.94100002,-13.655 0.126,-0.216 0.005,-0.41 -0.168,-0.489 0.053,-0.147 0.011,-0.337 -0.174,-0.368 -5.3420002,-0.973 -10.5530002,-1.882 -15.6900002,-3.739 -5.342,-1.935 -10.353,-4.564 -15.08,-7.708 -0.231,-0.152 -0.447,0.016 -0.499,0.226 0,-0.053 0,-0.11 0,-0.163 0.01,-0.226 -0.337,-0.273 -0.389,-0.053 -1.209,5.032 2.987,9.107 7.13,11.137 0.647,0.321 1.304,0.615 1.977,0.904 -2.466,-0.147 -4.911,-0.326 -7.367,-0.762 -0.231,-0.042 -0.468,0.142 -0.394,0.4 1.567,5.526 6.878,7.077 12.015,7.54 -2.55,0.284 -5.111,0.457 -7.677,0.526 -0.247,0.005 -0.405,0.226 -0.352,0.463 1.136,5.337 8.213,5.858 12.935,5.258 -2.229,1.604 -4.78,2.461 -7.587,2.561 -0.4,0.016 -0.536,0.531 -0.2,0.747 3.786,2.445 8.239,3.008 12.493,1.593 -1.33,1.551 -2.724,2.892 -4.59,3.833 -0.273,0.137 -0.252,0.547 0,0.694 2.876,1.661999 6.457,1.555999 9.139,-0.31 -0.41,0.973 -0.904,1.834999 -1.625,2.686999 -0.221,0.263 -0.074,0.651999 0.279,0.672999 4.32700018,0.247 8.5710002,-0.525999 12.4880002,-2.407998 0.095,-0.047 0.147,-0.116 0.168,-0.189 0.673,-0.047 1.3569998,-0.168 2.0559998,-0.389 0.43,-0.138 0.246,-0.816 -0.191,-0.679 z"
         id="path4" /></g><g
       aria-label="PHEME"
       id="text22"
       style="font-size:29.3333px;line-height:1.25;font-family:'Open Sans Condensed';-inkscape-font-specification:'Open Sans Condensed, '"><path
         d="m 55.170785,19.2392 q 0,3.236975 -1.489581,4.755203 -1.475259,1.518227 -4.382808,1.518227 h -1.489581 v 8.651032 H 46.40517 v -20.94008 h 2.86458 q 3.065101,0 4.483068,1.446613 1.417967,1.446613 1.417967,4.569005 z m -7.36197,4.984369 h 1.403644 q 2.463539,0 3.494787,-1.160155 1.031249,-1.160155 1.031249,-3.824214 0,-2.535153 -1.074217,-3.623694 -1.059895,-1.102863 -3.294267,-1.102863 h -1.561196 z"
         id="path42" /><path
         d="M 68.548375,34.163662 H 67.14473 V 23.865497 h -7.304679 v 10.298165 h -1.403644 v -20.94008 h 1.403644 v 9.295562 h 7.304679 v -9.295562 h 1.403645 z"
         id="path44" /><path
         d="m 80.751486,34.163662 h -7.591137 v -20.94008 h 7.591137 v 1.346352 h -6.187493 v 7.94921 h 5.843743 v 1.346353 h -5.843743 v 8.951812 h 6.187493 z"
         id="path46" /><path
         d="M 91.336111,34.163662 85.764503,15.099882 H 85.64992 q 0.143229,3.007809 0.143229,3.809891 v 15.253889 h -1.346353 v -20.94008 h 2.076821 l 4.697911,16.013002 q 0.630208,2.11979 0.816405,3.609371 h 0.114584 q 0.143229,-1.059894 0.888019,-3.580725 l 4.654943,-16.041648 h 2.148435 v 20.94008 H 98.44027 V 19.024356 q 0,-0.888019 0.143229,-3.895828 h -0.114583 l -5.542963,19.035134 z"
         id="path48" /><path
         d="m 112.0327,34.163662 h -7.59114 v -20.94008 h 7.59114 v 1.346352 h -6.18749 v 7.94921 h 5.84374 v 1.346353 h -5.84374 v 8.951812 h 6.18749 z"
         id="path50" /></g></g></svg>
